<svg width="22" height="23" viewBox="0 0 22 23" fill="none" xmlns="http://www.w3.org/2000/svg">
<path d="M9.5455 19.0345C9.54292 19.0345 9.53991 19.0345 9.53733 19.0345C9.43077 19.0324 9.33022 18.9868 9.25804 18.9086L1.89061 10.8975C1.76429 10.76 1.75268 10.5529 1.86311 10.4021C1.97354 10.2517 2.17464 10.2001 2.34393 10.2792L9.08702 13.4365C9.14374 13.4632 9.21077 13.4503 9.25417 13.4052L19.54 2.65483C19.6792 2.50917 19.907 2.49327 20.0651 2.61874C20.2232 2.74421 20.2598 2.96936 20.1493 3.13823L9.91761 18.8124C9.903 18.8351 9.88581 18.8558 9.8669 18.8751L9.82179 18.9202C9.74831 18.9933 9.64862 19.0345 9.5455 19.0345Z" fill="#0F0F0F"/>
</svg>
