<svg width="11" height="10" viewBox="0 0 11 10" fill="none" xmlns="http://www.w3.org/2000/svg">
<path d="M10.1045 1.26484V8.93453C10.1045 9.12288 10.0297 9.30351 9.89654 9.43669C9.7634 9.56987 9.58282 9.64469 9.39452 9.64469C9.20623 9.64469 9.02564 9.56987 8.8925 9.43669C8.75936 9.30351 8.68456 9.12288 8.68456 8.93453V2.9793L2.22896 9.4367C2.09581 9.56989 1.91523 9.64469 1.72694 9.64469C1.53864 9.64469 1.35806 9.56989 1.22491 9.4367C1.09177 9.30352 1.01697 9.12288 1.01697 8.93454C1.01697 8.7462 1.09177 8.56556 1.22491 8.43238L7.68053 1.975H1.72694C1.53865 1.975 1.35807 1.90018 1.22493 1.767C1.09178 1.63382 1.01698 1.45319 1.01698 1.26484C1.01698 1.0765 1.09178 0.895868 1.22493 0.762688C1.35807 0.629507 1.53865 0.554688 1.72694 0.554688H9.39452C9.58282 0.554688 9.7634 0.629507 9.89654 0.762688C10.0297 0.895868 10.1045 1.0765 10.1045 1.26484Z" fill="#0F0F0F"/>
</svg>
